# xmcd CD database file
#
# Track frame offsets:
#	150
#	11703
#	22428
#	33479
#	44788
#	57245
#	67180
#	79689
#	92847
#	104269
#	115310
#	127306
#	136971
#	148853
#	160459
#	172608
#	182498
#	195746
#	206464
#	218654
#	230585
#	242701
#	254644
#	267133
#	278909
#	290858
#	302181
#	314540
#	326049
#	337160
#	349221
#
# Disc length: 4793 seconds
#
# Revision: 0
# Processed by: cddbd v1.5.2PL0 Copyright (c) Steve Scherf et al.
# Submitted via: CDex 1.79
#
DISCID=f912b71f
DTITLE=Sonny Burns - A Real Cool Cat
DYEAR=2011
DGENRE=Country
TTITLE0=Powder And Paint
TTITLE1=Too Hot To Handle
TTITLE2=Tho` You`re In My Arms
TTITLE3=Blue, Blue Rain
TTITLE4=Close Your Eyes
TTITLE5=Another Woman Looking For A Man
TTITLE6=I Ain`t Long For This World
TTITLE7=Just A Token
TTITLE8=Thaink Again
TTITLE9=You`ll Look A Long, Long Time
TTITLE10=It`s Easier Said Than Done
TTITLE11=A Real Cool Cat
TTITLE12=Satan`s A-Waitin` 
TTITLE13=Frown On The Moon
TTITLE14=A Girl Of The Streets
TTITLE15=Let`s Change Sweethearts
TTITLE16=Six Feet Of Earth
TTITLE17=If You See My Baby
TTITLE18=Invitations (To Your Wedding)
TTITLE19=Heartbroken Me
TTITLE20=Waltzing With Sin
TTITLE21=Tell Her (1954)
TTITLE22=A Place For Girls Like You
TTITLE23=Heart Like A Dollar Sign
TTITLE24=It`s So Easy To Love (But So Hard To Forget)
TTITLE25=God Knows I Tried
TTITLE26=Won`t You Leave Him Alone
TTITLE27=Wrong About You
TTITLE28=Remember And Regret
TTITLE29=Tell Her
TTITLE30=Another Woman Looking For A Man (1954)
EXTD=YEAR: 2011
EXTT0=
EXTT1=
EXTT2=
EXTT3=
EXTT4=
EXTT5=
EXTT6=
EXTT7=
EXTT8=
EXTT9=
EXTT10=
EXTT11=
EXTT12=
EXTT13=
EXTT14=
EXTT15=
EXTT16=
EXTT17=
EXTT18=
EXTT19=
EXTT20=
EXTT21=
EXTT22=
EXTT23=
EXTT24=
EXTT25=
EXTT26=
EXTT27=
EXTT28=
EXTT29=
EXTT30=
PLAYORDER=
